G04*
G04 #@! TF.GenerationSoftware,Altium Limited,Altium Designer,21.6.1 (37)*
G04*
G04 Layer_Color=12040119*
%FSLAX25Y25*%
%MOIN*%
G70*
G04*
G04 #@! TF.SameCoordinates,623A30CF-433B-4B46-B165-7DC5B4DDAD39*
G04*
G04*
G04 #@! TF.FilePolarity,Positive*
G04*
G01*
G75*
%ADD10C,0.01000*%
%ADD11C,0.00787*%
%ADD12C,0.01181*%
%ADD13C,0.01575*%
%ADD14R,0.01181X0.04724*%
%ADD15R,0.04724X0.01181*%
G36*
X17207Y54246D02*
X17252D01*
X17357Y54241D01*
X17479Y54224D01*
X17607Y54207D01*
X17740Y54180D01*
X17873Y54146D01*
X17879D01*
X17890Y54141D01*
X17907Y54135D01*
X17929Y54130D01*
X17990Y54107D01*
X18068Y54074D01*
X18157Y54041D01*
X18245Y53996D01*
X18340Y53941D01*
X18428Y53885D01*
X18440Y53880D01*
X18467Y53858D01*
X18506Y53824D01*
X18556Y53780D01*
X18612Y53730D01*
X18667Y53669D01*
X18728Y53608D01*
X18778Y53536D01*
X18784Y53525D01*
X18800Y53503D01*
X18823Y53464D01*
X18850Y53408D01*
X18883Y53342D01*
X18911Y53264D01*
X18945Y53175D01*
X18972Y53075D01*
Y53064D01*
X18978Y53047D01*
X18983Y53031D01*
X18989Y52975D01*
X19000Y52898D01*
X19011Y52809D01*
X19022Y52703D01*
X19028Y52587D01*
X19033Y52459D01*
Y51077D01*
X15193D01*
Y52553D01*
X15198Y52653D01*
X15204Y52764D01*
X15215Y52875D01*
X15232Y52986D01*
X15248Y53081D01*
Y53086D01*
X15254Y53097D01*
Y53114D01*
X15265Y53136D01*
X15282Y53197D01*
X15309Y53275D01*
X15348Y53364D01*
X15398Y53458D01*
X15454Y53552D01*
X15526Y53641D01*
X15531Y53647D01*
X15537Y53652D01*
X15553Y53669D01*
X15570Y53691D01*
X15626Y53747D01*
X15703Y53813D01*
X15798Y53885D01*
X15909Y53963D01*
X16036Y54035D01*
X16181Y54096D01*
X16186D01*
X16197Y54102D01*
X16219Y54113D01*
X16253Y54119D01*
X16292Y54135D01*
X16336Y54146D01*
X16386Y54157D01*
X16447Y54174D01*
X16508Y54191D01*
X16580Y54202D01*
X16736Y54229D01*
X16908Y54246D01*
X17096Y54252D01*
X17102D01*
X17113D01*
X17141D01*
X17169D01*
X17207Y54246D01*
D02*
G37*
G36*
X19033Y49545D02*
Y49046D01*
X16108Y48241D01*
X16103D01*
X16092Y48235D01*
X16075Y48230D01*
X16048Y48224D01*
X15986Y48208D01*
X15914Y48191D01*
X15837Y48169D01*
X15764Y48147D01*
X15703Y48130D01*
X15676Y48125D01*
X15659Y48119D01*
X15664D01*
X15670Y48113D01*
X15703Y48108D01*
X15753Y48097D01*
X15814Y48080D01*
X15881Y48063D01*
X15959Y48041D01*
X16036Y48025D01*
X16108Y48002D01*
X19033Y47192D01*
Y46659D01*
X15193Y45655D01*
Y46182D01*
X17713Y46754D01*
X17718D01*
X17729Y46759D01*
X17751Y46765D01*
X17779Y46770D01*
X17818Y46776D01*
X17857Y46787D01*
X17907Y46798D01*
X17962Y46809D01*
X18079Y46837D01*
X18212Y46865D01*
X18356Y46892D01*
X18501Y46920D01*
X18495D01*
X18473Y46926D01*
X18445Y46937D01*
X18401Y46942D01*
X18356Y46953D01*
X18301Y46970D01*
X18179Y46998D01*
X18057Y47031D01*
X17996Y47042D01*
X17940Y47059D01*
X17890Y47070D01*
X17846Y47081D01*
X17812Y47092D01*
X17790Y47098D01*
X15193Y47825D01*
Y48441D01*
X17141Y48985D01*
X17146D01*
X17174Y48996D01*
X17213Y49007D01*
X17263Y49018D01*
X17330Y49035D01*
X17402Y49057D01*
X17485Y49079D01*
X17579Y49101D01*
X17685Y49129D01*
X17790Y49151D01*
X18018Y49201D01*
X18256Y49251D01*
X18501Y49290D01*
X18495D01*
X18484Y49296D01*
X18462D01*
X18434Y49307D01*
X18401Y49312D01*
X18362Y49323D01*
X18312Y49329D01*
X18256Y49345D01*
X18134Y49373D01*
X17990Y49407D01*
X17835Y49440D01*
X17662Y49484D01*
X15193Y50084D01*
Y50600D01*
X19033Y49545D01*
D02*
G37*
G36*
X18068Y45300D02*
X18145Y45289D01*
X18234Y45266D01*
X18328Y45239D01*
X18428Y45194D01*
X18534Y45133D01*
X18539D01*
X18545Y45127D01*
X18578Y45100D01*
X18628Y45061D01*
X18684Y45005D01*
X18750Y44933D01*
X18823Y44844D01*
X18889Y44745D01*
X18950Y44628D01*
Y44622D01*
X18956Y44611D01*
X18961Y44595D01*
X18972Y44572D01*
X18983Y44539D01*
X19000Y44500D01*
X19022Y44412D01*
X19050Y44306D01*
X19078Y44179D01*
X19094Y44040D01*
X19100Y43890D01*
Y43801D01*
X19094Y43757D01*
Y43707D01*
X19089Y43651D01*
X19083Y43585D01*
X19061Y43446D01*
X19039Y43302D01*
X19000Y43157D01*
X18950Y43018D01*
Y43013D01*
X18945Y43002D01*
X18934Y42985D01*
X18922Y42963D01*
X18889Y42896D01*
X18839Y42819D01*
X18772Y42730D01*
X18695Y42636D01*
X18600Y42547D01*
X18495Y42463D01*
X18489D01*
X18478Y42452D01*
X18462Y42447D01*
X18440Y42430D01*
X18412Y42419D01*
X18379Y42402D01*
X18295Y42364D01*
X18190Y42325D01*
X18073Y42292D01*
X17940Y42269D01*
X17801Y42258D01*
X17757Y42735D01*
X17762D01*
X17768D01*
X17785Y42741D01*
X17807D01*
X17857Y42752D01*
X17929Y42769D01*
X18001Y42791D01*
X18084Y42813D01*
X18162Y42852D01*
X18234Y42891D01*
X18240Y42896D01*
X18262Y42913D01*
X18301Y42941D01*
X18340Y42985D01*
X18390Y43041D01*
X18440Y43102D01*
X18489Y43185D01*
X18534Y43274D01*
Y43279D01*
X18539Y43285D01*
X18545Y43302D01*
X18551Y43318D01*
X18567Y43374D01*
X18589Y43446D01*
X18612Y43535D01*
X18628Y43635D01*
X18639Y43746D01*
X18645Y43868D01*
Y43918D01*
X18639Y43973D01*
X18634Y44040D01*
X18623Y44117D01*
X18612Y44206D01*
X18589Y44295D01*
X18562Y44378D01*
X18556Y44389D01*
X18545Y44417D01*
X18523Y44456D01*
X18501Y44506D01*
X18462Y44556D01*
X18423Y44611D01*
X18379Y44667D01*
X18323Y44711D01*
X18317Y44717D01*
X18295Y44728D01*
X18268Y44745D01*
X18223Y44767D01*
X18179Y44789D01*
X18123Y44806D01*
X18062Y44817D01*
X17996Y44822D01*
X17990D01*
X17962D01*
X17929Y44817D01*
X17885Y44811D01*
X17840Y44794D01*
X17785Y44778D01*
X17729Y44750D01*
X17679Y44711D01*
X17674Y44706D01*
X17657Y44689D01*
X17635Y44667D01*
X17602Y44628D01*
X17568Y44584D01*
X17529Y44523D01*
X17491Y44450D01*
X17457Y44367D01*
X17452Y44362D01*
X17446Y44334D01*
X17429Y44289D01*
X17424Y44262D01*
X17413Y44223D01*
X17396Y44184D01*
X17385Y44134D01*
X17368Y44079D01*
X17352Y44012D01*
X17335Y43945D01*
X17313Y43868D01*
X17291Y43779D01*
X17268Y43685D01*
Y43679D01*
X17263Y43662D01*
X17257Y43635D01*
X17246Y43601D01*
X17235Y43557D01*
X17224Y43507D01*
X17191Y43396D01*
X17152Y43274D01*
X17113Y43146D01*
X17074Y43035D01*
X17052Y42985D01*
X17030Y42941D01*
Y42935D01*
X17024Y42930D01*
X17002Y42896D01*
X16974Y42847D01*
X16930Y42791D01*
X16880Y42724D01*
X16819Y42658D01*
X16747Y42591D01*
X16669Y42536D01*
X16658Y42530D01*
X16630Y42513D01*
X16586Y42491D01*
X16530Y42469D01*
X16458Y42447D01*
X16375Y42425D01*
X16286Y42408D01*
X16192Y42402D01*
X16186D01*
X16181D01*
X16164D01*
X16142D01*
X16086Y42414D01*
X16014Y42425D01*
X15931Y42441D01*
X15837Y42469D01*
X15742Y42508D01*
X15648Y42563D01*
X15642D01*
X15637Y42569D01*
X15604Y42597D01*
X15559Y42636D01*
X15504Y42685D01*
X15442Y42752D01*
X15376Y42835D01*
X15315Y42935D01*
X15259Y43046D01*
Y43052D01*
X15254Y43063D01*
X15248Y43080D01*
X15237Y43102D01*
X15226Y43130D01*
X15215Y43168D01*
X15193Y43252D01*
X15171Y43357D01*
X15148Y43479D01*
X15132Y43607D01*
X15126Y43751D01*
Y43823D01*
X15132Y43862D01*
Y43901D01*
X15143Y44006D01*
X15159Y44123D01*
X15187Y44245D01*
X15221Y44378D01*
X15265Y44500D01*
Y44506D01*
X15270Y44517D01*
X15282Y44534D01*
X15293Y44556D01*
X15320Y44611D01*
X15370Y44684D01*
X15426Y44767D01*
X15498Y44850D01*
X15581Y44928D01*
X15676Y45000D01*
X15681D01*
X15687Y45005D01*
X15703Y45017D01*
X15720Y45028D01*
X15776Y45055D01*
X15848Y45089D01*
X15936Y45127D01*
X16042Y45155D01*
X16153Y45183D01*
X16275Y45194D01*
X16314Y44706D01*
X16308D01*
X16297D01*
X16281Y44700D01*
X16253Y44695D01*
X16192Y44678D01*
X16108Y44656D01*
X16020Y44622D01*
X15931Y44572D01*
X15848Y44512D01*
X15770Y44434D01*
X15764Y44423D01*
X15742Y44395D01*
X15709Y44339D01*
X15676Y44267D01*
X15642Y44173D01*
X15609Y44062D01*
X15587Y43923D01*
X15581Y43768D01*
Y43690D01*
X15587Y43657D01*
X15592Y43612D01*
X15604Y43512D01*
X15626Y43402D01*
X15653Y43290D01*
X15698Y43185D01*
X15726Y43141D01*
X15753Y43096D01*
X15759Y43085D01*
X15781Y43063D01*
X15820Y43030D01*
X15864Y42996D01*
X15925Y42957D01*
X15992Y42924D01*
X16070Y42902D01*
X16159Y42891D01*
X16170D01*
X16192D01*
X16231Y42896D01*
X16275Y42908D01*
X16330Y42924D01*
X16386Y42952D01*
X16442Y42985D01*
X16497Y43035D01*
X16503Y43041D01*
X16519Y43069D01*
X16536Y43091D01*
X16547Y43113D01*
X16564Y43146D01*
X16586Y43185D01*
X16602Y43235D01*
X16625Y43290D01*
X16647Y43352D01*
X16675Y43424D01*
X16697Y43501D01*
X16725Y43590D01*
X16747Y43690D01*
X16774Y43801D01*
Y43807D01*
X16780Y43829D01*
X16786Y43862D01*
X16797Y43901D01*
X16808Y43951D01*
X16825Y44012D01*
X16841Y44073D01*
X16858Y44140D01*
X16897Y44284D01*
X16936Y44423D01*
X16958Y44489D01*
X16980Y44550D01*
X16996Y44606D01*
X17019Y44650D01*
Y44656D01*
X17024Y44667D01*
X17035Y44684D01*
X17047Y44706D01*
X17080Y44767D01*
X17124Y44839D01*
X17185Y44922D01*
X17252Y45005D01*
X17330Y45083D01*
X17413Y45150D01*
X17424Y45155D01*
X17452Y45178D01*
X17502Y45200D01*
X17568Y45233D01*
X17646Y45261D01*
X17740Y45289D01*
X17846Y45305D01*
X17957Y45311D01*
X17962D01*
X17968D01*
X17984D01*
X18007D01*
X18068Y45300D01*
D02*
G37*
G36*
X17879Y40393D02*
X17407D01*
Y41853D01*
X17879D01*
Y40393D01*
D02*
G37*
G36*
X15620Y39977D02*
X15631Y39966D01*
X15653Y39944D01*
X15687Y39922D01*
X15726Y39888D01*
X15770Y39844D01*
X15825Y39799D01*
X15892Y39750D01*
X15959Y39700D01*
X16036Y39639D01*
X16125Y39577D01*
X16214Y39516D01*
X16314Y39450D01*
X16419Y39383D01*
X16536Y39317D01*
X16652Y39250D01*
X16658Y39244D01*
X16680Y39233D01*
X16714Y39217D01*
X16763Y39189D01*
X16825Y39161D01*
X16891Y39128D01*
X16969Y39089D01*
X17058Y39050D01*
X17157Y39006D01*
X17257Y38956D01*
X17368Y38912D01*
X17485Y38867D01*
X17724Y38778D01*
X17979Y38695D01*
X17984D01*
X18001Y38690D01*
X18029Y38684D01*
X18062Y38673D01*
X18106Y38662D01*
X18162Y38651D01*
X18223Y38634D01*
X18290Y38623D01*
X18367Y38606D01*
X18451Y38590D01*
X18628Y38562D01*
X18823Y38534D01*
X19033Y38517D01*
Y38035D01*
X19028D01*
X19011D01*
X18989D01*
X18956Y38040D01*
X18911D01*
X18856Y38046D01*
X18795Y38051D01*
X18728Y38057D01*
X18650Y38068D01*
X18573Y38079D01*
X18478Y38096D01*
X18384Y38112D01*
X18284Y38129D01*
X18173Y38151D01*
X17946Y38207D01*
X17940D01*
X17918Y38212D01*
X17885Y38223D01*
X17835Y38240D01*
X17779Y38257D01*
X17713Y38279D01*
X17635Y38301D01*
X17551Y38334D01*
X17457Y38368D01*
X17363Y38401D01*
X17152Y38484D01*
X16930Y38584D01*
X16708Y38695D01*
X16702Y38701D01*
X16680Y38712D01*
X16652Y38728D01*
X16608Y38751D01*
X16558Y38778D01*
X16497Y38817D01*
X16430Y38856D01*
X16358Y38900D01*
X16197Y39006D01*
X16031Y39117D01*
X15859Y39244D01*
X15698Y39378D01*
Y37496D01*
X15243D01*
Y39983D01*
X15615D01*
X15620Y39977D01*
D02*
G37*
G36*
X19033Y36298D02*
X17224D01*
Y34311D01*
X19033D01*
Y33800D01*
X15193D01*
Y34311D01*
X16769D01*
Y36298D01*
X15193D01*
Y36808D01*
X19033D01*
Y36298D01*
D02*
G37*
G36*
X76804Y59968D02*
X76854Y59963D01*
X76915Y59957D01*
X76976Y59952D01*
X77048Y59935D01*
X77198Y59902D01*
X77364Y59852D01*
X77447Y59818D01*
X77525Y59780D01*
X77603Y59730D01*
X77681Y59680D01*
X77686Y59674D01*
X77697Y59669D01*
X77719Y59652D01*
X77747Y59624D01*
X77775Y59596D01*
X77814Y59558D01*
X77853Y59513D01*
X77897Y59469D01*
X77941Y59413D01*
X77986Y59347D01*
X78036Y59280D01*
X78080Y59208D01*
X78119Y59125D01*
X78163Y59041D01*
X78197Y58953D01*
X78230Y58853D01*
X77731Y58736D01*
Y58742D01*
X77725Y58753D01*
X77714Y58775D01*
X77703Y58803D01*
X77692Y58836D01*
X77675Y58880D01*
X77631Y58969D01*
X77575Y59069D01*
X77508Y59169D01*
X77425Y59263D01*
X77337Y59347D01*
X77325Y59358D01*
X77292Y59380D01*
X77236Y59408D01*
X77164Y59447D01*
X77070Y59480D01*
X76965Y59513D01*
X76837Y59535D01*
X76698Y59541D01*
X76654D01*
X76626Y59535D01*
X76587D01*
X76543Y59530D01*
X76437Y59513D01*
X76321Y59491D01*
X76199Y59452D01*
X76071Y59397D01*
X75955Y59325D01*
X75949D01*
X75943Y59313D01*
X75905Y59286D01*
X75855Y59241D01*
X75794Y59175D01*
X75721Y59091D01*
X75655Y58997D01*
X75594Y58880D01*
X75538Y58753D01*
Y58747D01*
X75533Y58736D01*
X75527Y58719D01*
X75522Y58692D01*
X75511Y58658D01*
X75499Y58620D01*
X75483Y58525D01*
X75461Y58414D01*
X75438Y58292D01*
X75427Y58159D01*
X75422Y58015D01*
Y58009D01*
Y57992D01*
Y57965D01*
Y57931D01*
X75427Y57893D01*
Y57843D01*
X75433Y57787D01*
X75438Y57726D01*
X75455Y57593D01*
X75483Y57449D01*
X75516Y57304D01*
X75560Y57160D01*
Y57154D01*
X75566Y57143D01*
X75577Y57127D01*
X75588Y57099D01*
X75621Y57032D01*
X75671Y56955D01*
X75732Y56866D01*
X75810Y56771D01*
X75899Y56688D01*
X76004Y56611D01*
X76010D01*
X76021Y56605D01*
X76038Y56594D01*
X76060Y56583D01*
X76088Y56572D01*
X76121Y56555D01*
X76199Y56522D01*
X76299Y56488D01*
X76410Y56461D01*
X76532Y56438D01*
X76659Y56433D01*
X76698D01*
X76731Y56438D01*
X76770D01*
X76809Y56444D01*
X76909Y56466D01*
X77026Y56494D01*
X77142Y56538D01*
X77264Y56599D01*
X77325Y56633D01*
X77381Y56677D01*
X77386Y56683D01*
X77392Y56688D01*
X77409Y56705D01*
X77431Y56722D01*
X77453Y56749D01*
X77481Y56783D01*
X77514Y56816D01*
X77542Y56860D01*
X77575Y56910D01*
X77614Y56966D01*
X77647Y57021D01*
X77681Y57088D01*
X77708Y57160D01*
X77736Y57238D01*
X77764Y57321D01*
X77786Y57410D01*
X78297Y57282D01*
Y57276D01*
X78291Y57254D01*
X78280Y57221D01*
X78263Y57177D01*
X78247Y57127D01*
X78224Y57066D01*
X78197Y56999D01*
X78163Y56927D01*
X78086Y56771D01*
X77986Y56616D01*
X77925Y56538D01*
X77864Y56461D01*
X77797Y56394D01*
X77719Y56327D01*
X77714Y56322D01*
X77703Y56311D01*
X77675Y56300D01*
X77647Y56278D01*
X77603Y56250D01*
X77558Y56222D01*
X77497Y56194D01*
X77436Y56166D01*
X77364Y56133D01*
X77286Y56105D01*
X77203Y56078D01*
X77114Y56050D01*
X77020Y56028D01*
X76920Y56017D01*
X76815Y56006D01*
X76704Y56000D01*
X76643D01*
X76598Y56006D01*
X76548D01*
X76487Y56011D01*
X76421Y56022D01*
X76343Y56033D01*
X76182Y56061D01*
X76016Y56105D01*
X75849Y56166D01*
X75771Y56205D01*
X75694Y56250D01*
X75688Y56255D01*
X75677Y56261D01*
X75655Y56278D01*
X75633Y56300D01*
X75599Y56322D01*
X75560Y56355D01*
X75516Y56394D01*
X75472Y56438D01*
X75427Y56488D01*
X75377Y56538D01*
X75277Y56666D01*
X75183Y56816D01*
X75100Y56982D01*
Y56988D01*
X75089Y57004D01*
X75083Y57032D01*
X75067Y57066D01*
X75055Y57110D01*
X75039Y57165D01*
X75016Y57227D01*
X75000Y57293D01*
X74983Y57365D01*
X74961Y57449D01*
X74933Y57621D01*
X74911Y57815D01*
X74900Y58015D01*
Y58020D01*
Y58042D01*
Y58076D01*
X74906Y58114D01*
Y58170D01*
X74911Y58226D01*
X74917Y58298D01*
X74928Y58370D01*
X74955Y58531D01*
X74994Y58708D01*
X75050Y58886D01*
X75128Y59058D01*
X75133Y59064D01*
X75139Y59080D01*
X75150Y59102D01*
X75172Y59130D01*
X75194Y59169D01*
X75222Y59214D01*
X75294Y59313D01*
X75388Y59424D01*
X75499Y59535D01*
X75627Y59646D01*
X75777Y59741D01*
X75782Y59746D01*
X75799Y59752D01*
X75821Y59763D01*
X75849Y59780D01*
X75893Y59796D01*
X75938Y59813D01*
X75993Y59835D01*
X76054Y59857D01*
X76121Y59879D01*
X76193Y59902D01*
X76349Y59935D01*
X76526Y59963D01*
X76709Y59974D01*
X76765D01*
X76804Y59968D01*
D02*
G37*
G36*
X81943Y56067D02*
X81416D01*
X79407Y59080D01*
Y56067D01*
X78918D01*
Y59907D01*
X79440D01*
X81454Y56888D01*
Y59907D01*
X81943D01*
Y56067D01*
D02*
G37*
G36*
X85550Y59452D02*
X84285D01*
Y56067D01*
X83775D01*
Y59452D01*
X82509D01*
Y59907D01*
X85550D01*
Y59452D01*
D02*
G37*
G36*
X39815Y70800D02*
X39316D01*
X38511Y73725D01*
Y73730D01*
X38505Y73742D01*
X38500Y73758D01*
X38494Y73786D01*
X38478Y73847D01*
X38461Y73919D01*
X38439Y73997D01*
X38416Y74069D01*
X38400Y74130D01*
X38394Y74158D01*
X38389Y74174D01*
Y74169D01*
X38383Y74163D01*
X38378Y74130D01*
X38367Y74080D01*
X38350Y74019D01*
X38333Y73952D01*
X38311Y73875D01*
X38294Y73797D01*
X38272Y73725D01*
X37462Y70800D01*
X36929D01*
X35925Y74641D01*
X36452D01*
X37023Y72121D01*
Y72115D01*
X37029Y72104D01*
X37035Y72082D01*
X37040Y72054D01*
X37046Y72015D01*
X37057Y71977D01*
X37068Y71927D01*
X37079Y71871D01*
X37107Y71755D01*
X37134Y71621D01*
X37162Y71477D01*
X37190Y71333D01*
Y71338D01*
X37196Y71361D01*
X37207Y71388D01*
X37212Y71433D01*
X37223Y71477D01*
X37240Y71533D01*
X37268Y71655D01*
X37301Y71777D01*
X37312Y71838D01*
X37329Y71893D01*
X37340Y71943D01*
X37351Y71988D01*
X37362Y72021D01*
X37367Y72043D01*
X38095Y74641D01*
X38711D01*
X39255Y72693D01*
Y72687D01*
X39266Y72659D01*
X39277Y72620D01*
X39288Y72571D01*
X39305Y72504D01*
X39327Y72432D01*
X39349Y72348D01*
X39371Y72254D01*
X39399Y72149D01*
X39421Y72043D01*
X39471Y71816D01*
X39521Y71577D01*
X39560Y71333D01*
Y71338D01*
X39565Y71350D01*
Y71372D01*
X39576Y71399D01*
X39582Y71433D01*
X39593Y71472D01*
X39599Y71522D01*
X39615Y71577D01*
X39643Y71699D01*
X39676Y71843D01*
X39710Y71999D01*
X39754Y72171D01*
X40353Y74641D01*
X40870D01*
X39815Y70800D01*
D02*
G37*
G36*
X43178Y74635D02*
X43228D01*
X43345Y74629D01*
X43467Y74613D01*
X43600Y74596D01*
X43722Y74568D01*
X43783Y74552D01*
X43833Y74535D01*
X43839D01*
X43844Y74530D01*
X43878Y74513D01*
X43928Y74491D01*
X43989Y74452D01*
X44055Y74402D01*
X44127Y74335D01*
X44194Y74258D01*
X44261Y74169D01*
Y74163D01*
X44266Y74158D01*
X44288Y74124D01*
X44311Y74069D01*
X44344Y73997D01*
X44372Y73914D01*
X44399Y73814D01*
X44416Y73708D01*
X44422Y73592D01*
Y73586D01*
Y73575D01*
Y73553D01*
X44416Y73525D01*
Y73486D01*
X44410Y73447D01*
X44388Y73353D01*
X44355Y73242D01*
X44311Y73125D01*
X44244Y73009D01*
X44200Y72953D01*
X44155Y72898D01*
X44150Y72892D01*
X44144Y72887D01*
X44127Y72870D01*
X44105Y72853D01*
X44078Y72831D01*
X44044Y72809D01*
X44000Y72781D01*
X43955Y72748D01*
X43900Y72720D01*
X43839Y72693D01*
X43772Y72659D01*
X43700Y72632D01*
X43617Y72609D01*
X43534Y72582D01*
X43439Y72565D01*
X43339Y72548D01*
X43350Y72543D01*
X43373Y72532D01*
X43406Y72509D01*
X43450Y72487D01*
X43550Y72426D01*
X43600Y72387D01*
X43645Y72354D01*
X43656Y72343D01*
X43683Y72315D01*
X43728Y72271D01*
X43783Y72215D01*
X43844Y72137D01*
X43917Y72054D01*
X43989Y71954D01*
X44066Y71843D01*
X44727Y70800D01*
X44094D01*
X43589Y71599D01*
Y71605D01*
X43578Y71616D01*
X43567Y71632D01*
X43550Y71655D01*
X43511Y71716D01*
X43461Y71793D01*
X43400Y71877D01*
X43339Y71965D01*
X43278Y72049D01*
X43223Y72126D01*
X43217Y72132D01*
X43201Y72154D01*
X43173Y72188D01*
X43134Y72226D01*
X43051Y72310D01*
X43006Y72348D01*
X42962Y72382D01*
X42956Y72387D01*
X42945Y72393D01*
X42923Y72404D01*
X42890Y72421D01*
X42856Y72437D01*
X42818Y72454D01*
X42729Y72482D01*
X42723D01*
X42712Y72487D01*
X42690D01*
X42662Y72493D01*
X42623Y72498D01*
X42579D01*
X42518Y72504D01*
X41863D01*
Y70800D01*
X41352D01*
Y74641D01*
X43134D01*
X43178Y74635D01*
D02*
G37*
G36*
X34359D02*
X34454Y74629D01*
X34554Y74624D01*
X34648Y74613D01*
X34731Y74602D01*
X34742D01*
X34781Y74591D01*
X34831Y74580D01*
X34898Y74563D01*
X34970Y74535D01*
X35048Y74502D01*
X35131Y74463D01*
X35203Y74419D01*
X35214Y74413D01*
X35236Y74396D01*
X35270Y74363D01*
X35314Y74324D01*
X35364Y74274D01*
X35414Y74208D01*
X35469Y74136D01*
X35514Y74052D01*
X35519Y74041D01*
X35530Y74014D01*
X35553Y73963D01*
X35575Y73897D01*
X35592Y73819D01*
X35614Y73730D01*
X35625Y73630D01*
X35630Y73525D01*
Y73519D01*
Y73503D01*
Y73481D01*
X35625Y73442D01*
X35619Y73403D01*
X35614Y73353D01*
X35603Y73298D01*
X35592Y73237D01*
X35553Y73109D01*
X35530Y73042D01*
X35497Y72970D01*
X35458Y72898D01*
X35419Y72831D01*
X35370Y72765D01*
X35314Y72698D01*
X35309Y72693D01*
X35297Y72681D01*
X35281Y72665D01*
X35253Y72648D01*
X35220Y72620D01*
X35175Y72593D01*
X35120Y72559D01*
X35059Y72532D01*
X34987Y72498D01*
X34903Y72465D01*
X34815Y72437D01*
X34709Y72415D01*
X34598Y72393D01*
X34476Y72376D01*
X34337Y72365D01*
X34193Y72360D01*
X33211D01*
Y70800D01*
X32700D01*
Y74641D01*
X34276D01*
X34359Y74635D01*
D02*
G37*
%LPC*%
G36*
X17085Y53730D02*
X17080D01*
X17058D01*
X17030D01*
X16985Y53724D01*
X16936D01*
X16880Y53719D01*
X16813Y53713D01*
X16747Y53708D01*
X16597Y53680D01*
X16442Y53647D01*
X16297Y53597D01*
X16225Y53563D01*
X16164Y53530D01*
X16159D01*
X16147Y53519D01*
X16131Y53508D01*
X16108Y53497D01*
X16053Y53452D01*
X15986Y53397D01*
X15914Y53325D01*
X15842Y53242D01*
X15781Y53147D01*
X15731Y53047D01*
X15726Y53036D01*
X15720Y53009D01*
X15703Y52959D01*
X15687Y52886D01*
X15676Y52798D01*
X15659Y52687D01*
X15653Y52620D01*
Y52548D01*
X15648Y52476D01*
Y51588D01*
X18578D01*
Y52498D01*
X18573Y52537D01*
X18567Y52620D01*
X18562Y52714D01*
X18551Y52814D01*
X18534Y52914D01*
X18512Y52997D01*
X18506Y53009D01*
X18501Y53036D01*
X18484Y53075D01*
X18462Y53125D01*
X18428Y53181D01*
X18395Y53236D01*
X18356Y53292D01*
X18312Y53347D01*
X18301Y53353D01*
X18279Y53375D01*
X18240Y53408D01*
X18184Y53447D01*
X18112Y53491D01*
X18029Y53541D01*
X17934Y53586D01*
X17829Y53625D01*
X17823D01*
X17812Y53630D01*
X17796Y53636D01*
X17774Y53641D01*
X17746Y53647D01*
X17707Y53658D01*
X17668Y53669D01*
X17624Y53680D01*
X17513Y53697D01*
X17385Y53713D01*
X17241Y53724D01*
X17085Y53730D01*
D02*
G37*
G36*
X43073Y74213D02*
X41863D01*
Y72942D01*
X43006D01*
X43073Y72948D01*
X43151Y72953D01*
X43239Y72959D01*
X43328Y72970D01*
X43417Y72987D01*
X43495Y73009D01*
X43506Y73014D01*
X43528Y73026D01*
X43561Y73042D01*
X43606Y73064D01*
X43656Y73098D01*
X43706Y73137D01*
X43756Y73186D01*
X43795Y73242D01*
X43800Y73248D01*
X43811Y73270D01*
X43828Y73303D01*
X43850Y73348D01*
X43867Y73397D01*
X43883Y73453D01*
X43894Y73519D01*
X43900Y73586D01*
Y73592D01*
Y73597D01*
X43894Y73630D01*
X43889Y73680D01*
X43878Y73747D01*
X43850Y73814D01*
X43817Y73891D01*
X43767Y73963D01*
X43700Y74036D01*
X43689Y74041D01*
X43661Y74063D01*
X43617Y74091D01*
X43545Y74124D01*
X43461Y74158D01*
X43350Y74186D01*
X43223Y74208D01*
X43073Y74213D01*
D02*
G37*
G36*
X34310Y74186D02*
X33211D01*
Y72815D01*
X34243D01*
X34282Y72820D01*
X34321D01*
X34365Y72826D01*
X34470Y72837D01*
X34587Y72859D01*
X34704Y72892D01*
X34809Y72937D01*
X34859Y72965D01*
X34898Y72998D01*
X34909Y73009D01*
X34931Y73031D01*
X34964Y73075D01*
X35003Y73131D01*
X35042Y73203D01*
X35075Y73292D01*
X35098Y73392D01*
X35109Y73508D01*
Y73514D01*
Y73519D01*
Y73547D01*
X35103Y73597D01*
X35092Y73653D01*
X35081Y73714D01*
X35059Y73786D01*
X35026Y73852D01*
X34987Y73919D01*
X34981Y73925D01*
X34964Y73947D01*
X34937Y73975D01*
X34903Y74014D01*
X34853Y74052D01*
X34798Y74086D01*
X34737Y74119D01*
X34665Y74147D01*
X34659D01*
X34637Y74152D01*
X34604Y74158D01*
X34559Y74169D01*
X34493Y74174D01*
X34409Y74180D01*
X34310Y74186D01*
D02*
G37*
%LPD*%
D10*
X116142Y11811D02*
G03*
X116142Y11811I-9843J0D01*
G01*
Y106299D02*
G03*
X116142Y106299I-9843J0D01*
G01*
X112706Y33100D02*
Y38400D01*
Y33100D02*
X116200D01*
X112706Y53000D02*
Y58000D01*
X116200D01*
X93500Y25800D02*
X116200D01*
X93500Y64700D02*
X116200D01*
X93500Y25800D02*
Y64700D01*
X116200Y58000D02*
Y64700D01*
Y25800D02*
Y33100D01*
Y38400D02*
Y53000D01*
X112706Y38400D02*
X116200D01*
X112706Y53000D02*
X116200D01*
X15680Y56652D02*
Y59250D01*
Y56652D02*
Y59250D01*
Y56652D02*
Y59250D01*
X12472Y56652D02*
X15680D01*
X12472Y68148D02*
X15680D01*
Y65550D02*
Y68148D01*
X-2061Y77709D02*
Y112906D01*
Y77709D02*
X24710D01*
Y112906D01*
X-2061D02*
X24710D01*
X90423Y99835D02*
X93022D01*
X90423D02*
X93022D01*
X90423D02*
X93022D01*
Y96627D02*
Y99835D01*
X81525Y96627D02*
Y99835D01*
X84124D01*
X60295Y105741D02*
X70925D01*
X55177Y84875D02*
X76043D01*
Y100623D01*
X70925Y105741D02*
X76043Y100623D01*
X55177Y84875D02*
Y100623D01*
X60295Y105741D01*
D11*
X82805Y87535D02*
G03*
X81230Y85961I0J-1575D01*
G01*
Y82890D02*
G03*
X82805Y81315I1575J-0D01*
G01*
X91742Y81315D02*
G03*
X93317Y82890I-0J1575D01*
G01*
X93317Y85961D02*
G03*
X91742Y87535I-1575J0D01*
G01*
X91742Y106724D02*
G03*
X93317Y108299I-0J1575D01*
G01*
Y111369D02*
G03*
X91742Y112944I-1575J0D01*
G01*
X82805Y112944D02*
G03*
X81230Y111369I0J-1575D01*
G01*
X81230Y108299D02*
G03*
X82805Y106724I1575J0D01*
G01*
X82731Y79823D02*
G03*
X81157Y78248I0J-1575D01*
G01*
Y75177D02*
G03*
X82731Y73602I1575J-0D01*
G01*
X91668Y73602D02*
G03*
X93243Y75177I-0J1575D01*
G01*
X93243Y78248D02*
G03*
X91668Y79823I-1575J0D01*
G01*
X23023Y57932D02*
G03*
X24598Y56357I1575J0D01*
G01*
X27669D02*
G03*
X29243Y57932I0J1575D01*
G01*
X29243Y66869D02*
G03*
X27669Y68443I-1575J-0D01*
G01*
X24598Y68443D02*
G03*
X23023Y66869I0J-1575D01*
G01*
X55394Y63010D02*
G03*
X53819Y61435I0J-1575D01*
G01*
Y58365D02*
G03*
X55394Y56790I1575J-0D01*
G01*
X64331Y56790D02*
G03*
X65905Y58365I-0J1575D01*
G01*
X65905Y61435D02*
G03*
X64331Y63010I-1575J0D01*
G01*
X31300Y21510D02*
G03*
X29725Y19935I0J-1575D01*
G01*
Y16865D02*
G03*
X31300Y15290I1575J-0D01*
G01*
X40237Y15290D02*
G03*
X41812Y16865I-0J1575D01*
G01*
X41812Y19935D02*
G03*
X40237Y21510I-1575J0D01*
G01*
X99300Y73710D02*
G03*
X97725Y72135I0J-1575D01*
G01*
Y69065D02*
G03*
X99300Y67490I1575J-0D01*
G01*
X108237Y67490D02*
G03*
X109812Y69065I-0J1575D01*
G01*
X109812Y72135D02*
G03*
X108237Y73710I-1575J0D01*
G01*
X75453Y95308D02*
G03*
X75453Y95308I-9843J0D01*
G01*
X15690Y8074D02*
G03*
X17265Y6499I1575J0D01*
G01*
X20335D02*
G03*
X21910Y8074I0J1575D01*
G01*
X21910Y17011D02*
G03*
X20335Y18586I-1575J-0D01*
G01*
X17265Y18586D02*
G03*
X15690Y17011I0J-1575D01*
G01*
X32695Y77250D02*
X33482Y76490D01*
X32695Y81950D02*
X33482Y82710D01*
X37025D01*
X44643Y76490D02*
Y82710D01*
X32695Y77250D02*
Y81950D01*
X40175Y82710D02*
X44643D01*
X33482Y76490D02*
X37025D01*
X40175D02*
X44643D01*
X81131Y27694D02*
X81891Y28482D01*
X75671D02*
X76430Y27694D01*
X75671Y28482D02*
Y32025D01*
Y39643D02*
X81891D01*
X76430Y27694D02*
X81131D01*
X75671Y35175D02*
Y39643D01*
X81891Y28482D02*
Y32025D01*
Y35175D02*
Y39643D01*
Y49202D02*
Y53671D01*
Y41584D02*
Y46053D01*
X75671Y49202D02*
Y53671D01*
Y41584D02*
X81891D01*
X75671Y53671D02*
X81891D01*
X75671Y41584D02*
Y46053D01*
X53775Y76390D02*
X58243D01*
X46157D02*
X50625D01*
X53775Y82610D02*
X58243D01*
X46157Y76390D02*
Y82610D01*
X58243Y76390D02*
Y82610D01*
X46157D02*
X50625D01*
X9578Y61219D02*
Y63581D01*
X3200Y54511D02*
X13200D01*
Y4511D02*
Y54511D01*
X3200Y4511D02*
Y54511D01*
Y4511D02*
X13200D01*
X86092Y93733D02*
X88455D01*
X82805Y81315D02*
X85699D01*
X88848Y81315D02*
X91742D01*
X88848Y87535D02*
X91742D01*
X81230Y82890D02*
Y85961D01*
X93317Y82890D02*
Y85961D01*
X82805Y87535D02*
X85699D01*
X88848Y112944D02*
X91742D01*
X82805Y112944D02*
X85699D01*
X82805Y106724D02*
X85699D01*
X93317Y108299D02*
Y111369D01*
X81230Y108299D02*
Y111369D01*
X88848Y106724D02*
X91742D01*
X32509Y101958D02*
Y108179D01*
Y101958D02*
X44595D01*
Y108179D01*
X32509D02*
X44595D01*
X40127Y94012D02*
X44595D01*
X32509D02*
X36977D01*
X40127Y100233D02*
X44595D01*
X32509Y94012D02*
Y100233D01*
X44595Y94012D02*
Y100233D01*
X32509D02*
X36977D01*
X40127Y86066D02*
X44595D01*
X32509D02*
X36977D01*
X40127Y92287D02*
X44595D01*
X32509Y86066D02*
Y92287D01*
X44595Y86066D02*
Y92287D01*
X32509D02*
X36977D01*
X82731Y73602D02*
X85625D01*
X88775Y73602D02*
X91668D01*
X88775Y79823D02*
X91668D01*
X81157Y75177D02*
Y78248D01*
X93243Y75177D02*
Y78248D01*
X82731Y79823D02*
X85625D01*
X29243Y57932D02*
Y60825D01*
X29243Y63975D02*
Y66869D01*
X23023Y63975D02*
Y66869D01*
X24598Y56357D02*
X27669D01*
X24598Y68443D02*
X27669D01*
X23023Y57932D02*
Y60825D01*
X55394Y56790D02*
X58287D01*
X61437Y56790D02*
X64331D01*
X61437Y63010D02*
X64331D01*
X53819Y58365D02*
Y61435D01*
X65905Y58365D02*
Y61435D01*
X55394Y63010D02*
X58287D01*
X31300Y15290D02*
X34194D01*
X37343Y15290D02*
X40237D01*
X37343Y21510D02*
X40237D01*
X29725Y16865D02*
Y19935D01*
X41812Y16865D02*
Y19935D01*
X31300Y21510D02*
X34194D01*
X99300Y67490D02*
X102194D01*
X105343Y67490D02*
X108237D01*
X105343Y73710D02*
X108237D01*
X97725Y69065D02*
Y72135D01*
X109812Y69065D02*
Y72135D01*
X99300Y73710D02*
X102194D01*
X46850Y32283D02*
Y46457D01*
X71260Y32283D02*
Y46457D01*
X46850Y32283D02*
X71260D01*
X46850Y46457D02*
X71260D01*
X21910Y8074D02*
Y10967D01*
X21910Y14117D02*
Y17011D01*
X15690Y14117D02*
Y17011D01*
X17265Y6499D02*
X20335D01*
X17265Y18586D02*
X20335D01*
X15690Y8074D02*
Y10967D01*
D12*
X73819Y51575D02*
G03*
X73819Y51575I-591J0D01*
G01*
D13*
X69685Y44094D02*
G03*
X69685Y44094I-787J0D01*
G01*
D14*
X31415Y79600D02*
D03*
D15*
X78781Y26415D02*
D03*
M02*
