M48
;Layer_Color=9474304
;FILE_FORMAT=2:5
INCH,LZ
;TYPE=PLATED
T1F00S00C0.01181
T3F00S00C0.03543
T4F00S00C0.03937
T5F00S00C0.07874
%
T01
X0033Y00255
Y00592
X00382
X00325Y0065431
X00505Y00602
X00631Y0044
X00682
X00854Y00305
X00785Y00744
X0012Y0072
X00068
X00073Y0088
Y00932
Y00984
X00485Y00943
Y0089
X00785Y00828
Y00786
X01Y00768
Y00811
T03
X01068Y00352
Y00452
Y00552
X00082Y0049511
Y0039511
Y0029511
Y0019511
Y0009511
T04
X00288Y0009425
X00388Y0009415
X00488
X00588
X0068852Y0009511
X0078851
X0088851
T05
X0106299Y0011811
Y0106299
M30
